<svg width="77" height="48" viewBox="0 0 77 48" fill="none" xmlns="http://www.w3.org/2000/svg">
<path d="M5.346 35.88C8.91 35.88 10.824 33.768 10.824 30.006C10.824 27.135 9.867 25.287 6.831 22.614C4.455 20.535 3.696 19.314 3.696 17.631C3.696 16.047 4.356 15.42 5.511 15.42C6.666 15.42 7.326 16.047 7.326 17.697V18.885H10.758V17.928C10.758 14.232 9.009 12.12 5.478 12.12C1.947 12.12 0.0659999 14.232 0.0659999 17.862C0.0659999 20.502 1.056 22.383 4.092 25.056C6.468 27.135 7.194 28.356 7.194 30.27C7.194 31.986 6.468 32.58 5.313 32.58C4.158 32.58 3.432 31.986 3.432 30.336V28.752H0V30.072C0 33.768 1.782 35.88 5.346 35.88Z" fill="#555555"/>
<path d="M17.6243 35.88C21.1883 35.88 23.1023 33.768 23.1023 30.006C23.1023 27.135 22.1453 25.287 19.1093 22.614C16.7333 20.535 15.9743 19.314 15.9743 17.631C15.9743 16.047 16.6343 15.42 17.7893 15.42C18.9443 15.42 19.6043 16.047 19.6043 17.697V18.885H23.0363V17.928C23.0363 14.232 21.2873 12.12 17.7563 12.12C14.2253 12.12 12.3443 14.232 12.3443 17.862C12.3443 20.502 13.3343 22.383 16.3703 25.056C18.7463 27.135 19.4723 28.356 19.4723 30.27C19.4723 31.986 18.7463 32.58 17.5913 32.58C16.4363 32.58 15.7103 31.986 15.7103 30.336V28.752H12.2783V30.072C12.2783 33.768 14.0603 35.88 17.6243 35.88Z" fill="#555555"/>
<path d="M25.1836 35.55H30.8926C34.5226 35.55 36.4036 33.636 36.4036 30.072V28.092C36.4036 25.65 35.6446 23.934 33.6976 23.274V23.208C35.3146 22.548 36.0406 21.063 36.0406 18.687V17.763C36.0406 14.199 34.4236 12.45 30.6616 12.45H25.1836V35.55ZM28.8136 21.855V15.75H30.5626C31.8496 15.75 32.4106 16.476 32.4106 18.126V19.413C32.4106 21.261 31.5856 21.855 30.2326 21.855H28.8136ZM28.8136 32.25V25.155H30.4306C32.0806 25.155 32.7736 25.815 32.7736 27.96V29.973C32.7736 31.689 32.1136 32.25 30.8926 32.25H28.8136Z" fill="#A076F2"/>
<path d="M43.7724 35.88C47.3364 35.88 49.2834 33.768 49.2834 30.072V17.928C49.2834 14.232 47.3364 12.12 43.7724 12.12C40.2084 12.12 38.2614 14.232 38.2614 17.928V30.072C38.2614 33.768 40.2084 35.88 43.7724 35.88ZM43.7724 32.58C42.6174 32.58 41.8914 31.953 41.8914 30.303V17.697C41.8914 16.047 42.6174 15.42 43.7724 15.42C44.9274 15.42 45.6534 16.047 45.6534 17.697V30.303C45.6534 31.953 44.9274 32.58 43.7724 32.58Z" fill="#A076F2"/>
<path d="M56.9853 35.88C60.5493 35.88 62.4963 33.768 62.4963 30.072V17.928C62.4963 14.232 60.5493 12.12 56.9853 12.12C53.4213 12.12 51.4743 14.232 51.4743 17.928V30.072C51.4743 33.768 53.4213 35.88 56.9853 35.88ZM56.9853 32.58C55.8303 32.58 55.1043 31.953 55.1043 30.303V17.697C55.1043 16.047 55.8303 15.42 56.9853 15.42C58.1403 15.42 58.8663 16.047 58.8663 17.697V30.303C58.8663 31.953 58.1403 32.58 56.9853 32.58Z" fill="#A076F2"/>
<path d="M64.9512 35.55H68.5812V28.191L70.0332 25.254L73.1022 35.55H76.8972L72.5082 20.931L76.8312 12.45H73.2012L68.5812 22.185V12.45H64.9512V35.55Z" fill="#A076F2"/>
</svg>
